<mxfile host="app.diagrams.net" modified="2023-11-18T20:47:14.396Z" agent="Mozilla/5.0 (Macintosh; Intel Mac OS X 10_15_7) AppleWebKit/537.36 (KHTML, like Gecko) Chrome/119.0.0.0 Safari/537.36" etag="uiAkWrWx7_VSsevX9w5V" version="22.1.3" type="github">
  <diagram name="Page-1" id="JUcxWOryuHZ5mRwL2RTn">
    <mxGraphModel dx="4104" dy="2352" grid="1" gridSize="10" guides="1" tooltips="1" connect="1" arrows="1" fold="1" page="1" pageScale="1" pageWidth="827" pageHeight="1169" math="0" shadow="0">
      <root>
        <mxCell id="0" />
        <mxCell id="1" parent="0" />
        <mxCell id="MAUNU28R5X6QQiyGuLCO-35" value="&lt;h2&gt;&lt;br&gt;&lt;/h2&gt;" style="html=1;whiteSpace=wrap;align=center;" vertex="1" parent="1">
          <mxGeometry x="390" y="20" width="1400" height="930" as="geometry" />
        </mxCell>
        <mxCell id="MAUNU28R5X6QQiyGuLCO-3" value="&lt;p style=&quot;margin:0px;margin-top:6px;text-align:center;&quot;&gt;&lt;/p&gt;&lt;h2 style=&quot;text-align: center; margin: 0px 0px 0px 8px;&quot;&gt;&lt;b&gt;Front-End&lt;/b&gt;&lt;/h2&gt;&lt;hr&gt;&lt;p style=&quot;margin:0px;margin-left:8px;&quot;&gt;&lt;br&gt;&lt;/p&gt;" style="align=left;overflow=fill;html=1;dropTarget=0;whiteSpace=wrap;" vertex="1" parent="1">
          <mxGeometry x="40" y="20" width="290" height="730" as="geometry" />
        </mxCell>
        <mxCell id="MAUNU28R5X6QQiyGuLCO-5" value="&amp;lt;&amp;lt;web-app&amp;gt;&amp;gt;&lt;br&gt;public website" style="html=1;whiteSpace=wrap;fillColor=#006600;" vertex="1" parent="1">
          <mxGeometry x="50" y="150" width="270" height="50" as="geometry" />
        </mxCell>
        <mxCell id="MAUNU28R5X6QQiyGuLCO-6" value="&amp;lt;&amp;lt;web-app&amp;gt;&amp;gt;&lt;br&gt;Agents WebApp" style="html=1;whiteSpace=wrap;fillColor=#006600;" vertex="1" parent="1">
          <mxGeometry x="50" y="360" width="270" height="50" as="geometry" />
        </mxCell>
        <mxCell id="MAUNU28R5X6QQiyGuLCO-7" value="&amp;lt;&amp;lt;web-app&amp;gt;&amp;gt;&lt;br&gt;Members WebApp" style="html=1;whiteSpace=wrap;fillColor=#006600;" vertex="1" parent="1">
          <mxGeometry x="50" y="285" width="270" height="50" as="geometry" />
        </mxCell>
        <mxCell id="MAUNU28R5X6QQiyGuLCO-8" value="&amp;lt;&amp;lt;web-app&amp;gt;&amp;gt;&lt;br&gt;Administration WebApp" style="html=1;whiteSpace=wrap;fillColor=#006600;" vertex="1" parent="1">
          <mxGeometry x="50" y="220" width="270" height="50" as="geometry" />
        </mxCell>
        <mxCell id="MAUNU28R5X6QQiyGuLCO-9" value="&amp;lt;&amp;lt;web-app&amp;gt;&amp;gt;&lt;br&gt;Reporting WebApp" style="html=1;whiteSpace=wrap;fillColor=#006600;" vertex="1" parent="1">
          <mxGeometry x="50" y="430" width="270" height="50" as="geometry" />
        </mxCell>
        <mxCell id="MAUNU28R5X6QQiyGuLCO-10" value="&amp;lt;&amp;lt;Mobile-app&amp;gt;&amp;gt;&lt;br&gt;Sales Agents" style="html=1;whiteSpace=wrap;fillColor=#B46504;gradientColor=#FFC28C;gradientDirection=north;" vertex="1" parent="1">
          <mxGeometry x="50" y="580" width="270" height="50" as="geometry" />
        </mxCell>
        <mxCell id="MAUNU28R5X6QQiyGuLCO-11" value="&amp;lt;&amp;lt;Mobile-app&amp;gt;&amp;gt;&lt;br&gt;Customent&amp;nbsp; App" style="html=1;whiteSpace=wrap;fillColor=#B46504;gradientColor=#FFC28C;gradientDirection=north;" vertex="1" parent="1">
          <mxGeometry x="50" y="650" width="270" height="50" as="geometry" />
        </mxCell>
        <mxCell id="MAUNU28R5X6QQiyGuLCO-13" value="&lt;p style=&quot;margin:0px;margin-top:6px;text-align:center;&quot;&gt;&lt;/p&gt;&lt;h2 style=&quot;text-align: center; margin: 0px 0px 0px 8px;&quot;&gt;&lt;/h2&gt;&lt;h2 style=&quot;text-align: center; margin: 0px 0px 0px 8px;&quot;&gt;&lt;b&gt;Insurance Services&lt;/b&gt;&lt;/h2&gt;&lt;hr&gt;" style="align=left;overflow=fill;html=1;dropTarget=0;whiteSpace=wrap;" vertex="1" parent="1">
          <mxGeometry x="420" y="100" width="1000" height="210" as="geometry" />
        </mxCell>
        <mxCell id="MAUNU28R5X6QQiyGuLCO-14" value="&amp;lt;&amp;lt;Component&amp;gt;&amp;gt;&lt;br&gt;Agents Management" style="html=1;whiteSpace=wrap;fillColor=#B46504;strokeColor=#b46504;gradientColor=#FFC28C;gradientDirection=north;" vertex="1" parent="1">
          <mxGeometry x="430" y="150" width="270" height="50" as="geometry" />
        </mxCell>
        <mxCell id="MAUNU28R5X6QQiyGuLCO-15" value="&amp;lt;&amp;lt;Component&amp;gt;&amp;gt;&lt;br style=&quot;border-color: var(--border-color);&quot;&gt;Policy Management" style="html=1;whiteSpace=wrap;fillColor=#B46504;strokeColor=#b46504;gradientColor=#FFC28C;gradientDirection=north;" vertex="1" parent="1">
          <mxGeometry x="760" y="220" width="270" height="50" as="geometry" />
        </mxCell>
        <mxCell id="MAUNU28R5X6QQiyGuLCO-16" value="&amp;lt;&amp;lt;Component&amp;gt;&amp;gt;&lt;br style=&quot;border-color: var(--border-color);&quot;&gt;MemberShip management" style="html=1;whiteSpace=wrap;fillColor=#B46504;strokeColor=#b46504;gradientColor=#FFC28C;gradientDirection=north;" vertex="1" parent="1">
          <mxGeometry x="760" y="150" width="270" height="50" as="geometry" />
        </mxCell>
        <mxCell id="MAUNU28R5X6QQiyGuLCO-17" value="&amp;lt;&amp;lt;Component&amp;gt;&amp;gt;&lt;br style=&quot;border-color: var(--border-color);&quot;&gt;Insurance Quotes" style="html=1;whiteSpace=wrap;fillColor=#B46504;strokeColor=#b46504;gradientColor=#FFC28C;gradientDirection=north;" vertex="1" parent="1">
          <mxGeometry x="430" y="220" width="270" height="50" as="geometry" />
        </mxCell>
        <mxCell id="MAUNU28R5X6QQiyGuLCO-19" value="&amp;lt;&amp;lt;Component&amp;gt;&amp;gt;&lt;br style=&quot;border-color: var(--border-color);&quot;&gt;Billing" style="html=1;whiteSpace=wrap;fillColor=#B46504;strokeColor=#b46504;gradientColor=#FFC28C;gradientDirection=north;" vertex="1" parent="1">
          <mxGeometry x="1100" y="150" width="270" height="50" as="geometry" />
        </mxCell>
        <mxCell id="MAUNU28R5X6QQiyGuLCO-20" value="&amp;lt;&amp;lt;Component&amp;gt;&amp;gt;&lt;br style=&quot;border-color: var(--border-color);&quot;&gt;Pricing management" style="html=1;whiteSpace=wrap;fillColor=#B46504;strokeColor=#b46504;gradientColor=#FFC28C;gradientDirection=north;" vertex="1" parent="1">
          <mxGeometry x="1100" y="220" width="270" height="50" as="geometry" />
        </mxCell>
        <mxCell id="MAUNU28R5X6QQiyGuLCO-21" value="&lt;p style=&quot;margin:0px;margin-top:6px;text-align:center;&quot;&gt;&lt;/p&gt;&lt;h2 style=&quot;text-align: center; margin: 0px 0px 0px 8px;&quot;&gt;&lt;/h2&gt;&lt;h2 style=&quot;text-align: center; margin: 0px 0px 0px 8px;&quot;&gt;&lt;b&gt;Web contents Management Services&lt;/b&gt;&lt;/h2&gt;" style="align=left;overflow=fill;html=1;dropTarget=0;whiteSpace=wrap;" vertex="1" parent="1">
          <mxGeometry x="420" y="335" width="1000" height="210" as="geometry" />
        </mxCell>
        <mxCell id="MAUNU28R5X6QQiyGuLCO-22" value="&amp;lt;&amp;lt;Component&amp;gt;&amp;gt;&lt;br style=&quot;border-color: var(--border-color);&quot;&gt;CMS" style="html=1;whiteSpace=wrap;fillColor=#B46504;gradientColor=#FFC28C;gradientDirection=north;" vertex="1" parent="1">
          <mxGeometry x="430" y="385" width="270" height="50" as="geometry" />
        </mxCell>
        <mxCell id="MAUNU28R5X6QQiyGuLCO-23" value="&amp;lt;&amp;lt;Component&amp;gt;&amp;gt;&lt;br style=&quot;border-color: var(--border-color);&quot;&gt;SEO" style="html=1;whiteSpace=wrap;fillColor=#B46504;gradientColor=#FFC28C;gradientDirection=north;" vertex="1" parent="1">
          <mxGeometry x="760" y="455" width="270" height="50" as="geometry" />
        </mxCell>
        <mxCell id="MAUNU28R5X6QQiyGuLCO-24" value="&amp;lt;&amp;lt;Component&amp;gt;&amp;gt;&lt;br style=&quot;border-color: var(--border-color);&quot;&gt;Accounts Management" style="html=1;whiteSpace=wrap;fillColor=#B46504;gradientColor=#FFC28C;gradientDirection=north;" vertex="1" parent="1">
          <mxGeometry x="760" y="385" width="270" height="50" as="geometry" />
        </mxCell>
        <mxCell id="MAUNU28R5X6QQiyGuLCO-25" value="&amp;lt;&amp;lt;Component&amp;gt;&amp;gt;&lt;br style=&quot;border-color: var(--border-color);&quot;&gt;Broadcast Services" style="html=1;whiteSpace=wrap;fillColor=#B46504;gradientColor=#FFC28C;gradientDirection=north;" vertex="1" parent="1">
          <mxGeometry x="430" y="455" width="270" height="50" as="geometry" />
        </mxCell>
        <mxCell id="MAUNU28R5X6QQiyGuLCO-26" value="&amp;lt;&amp;lt;Component&amp;gt;&amp;gt;&lt;br style=&quot;border-color: var(--border-color);&quot;&gt;Banners Management" style="html=1;whiteSpace=wrap;fillColor=#B46504;gradientColor=#FFC28C;gradientDirection=north;" vertex="1" parent="1">
          <mxGeometry x="1100" y="385" width="270" height="50" as="geometry" />
        </mxCell>
        <mxCell id="MAUNU28R5X6QQiyGuLCO-28" value="&lt;p style=&quot;margin:0px;margin-top:6px;text-align:center;&quot;&gt;&lt;/p&gt;&lt;h2 style=&quot;text-align: center; margin: 0px 0px 0px 8px;&quot;&gt;&lt;b&gt;Front-End&lt;/b&gt;&lt;/h2&gt;&lt;hr&gt;&lt;p style=&quot;margin:0px;margin-left:8px;&quot;&gt;&lt;br&gt;&lt;/p&gt;" style="align=left;overflow=fill;html=1;dropTarget=0;whiteSpace=wrap;" vertex="1" parent="1">
          <mxGeometry x="414" y="680" width="1000" height="210" as="geometry" />
        </mxCell>
        <mxCell id="MAUNU28R5X6QQiyGuLCO-29" value="&amp;lt;&amp;lt;API&amp;gt;&amp;gt;&lt;br&gt;Quote Request" style="html=1;whiteSpace=wrap;fillColor=#B46504;gradientColor=#FFC28C;gradientDirection=north;" vertex="1" parent="1">
          <mxGeometry x="424" y="730" width="170" height="90" as="geometry" />
        </mxCell>
        <mxCell id="MAUNU28R5X6QQiyGuLCO-31" value="&amp;lt;&amp;lt;API&amp;gt;&amp;gt;&lt;br style=&quot;border-color: var(--border-color);&quot;&gt;Online Policy issuance" style="html=1;whiteSpace=wrap;fillColor=#B46504;gradientColor=#FFC28C;gradientDirection=north;" vertex="1" parent="1">
          <mxGeometry x="644" y="730" width="150" height="90" as="geometry" />
        </mxCell>
        <mxCell id="MAUNU28R5X6QQiyGuLCO-32" value="&amp;lt;&amp;lt;API&amp;gt;&amp;gt;&lt;br style=&quot;border-color: var(--border-color);&quot;&gt;SMS Gateway" style="html=1;whiteSpace=wrap;fillColor=#B46504;gradientColor=#FFC28C;gradientDirection=north;" vertex="1" parent="1">
          <mxGeometry x="1094" y="730" width="190" height="90" as="geometry" />
        </mxCell>
        <mxCell id="MAUNU28R5X6QQiyGuLCO-33" value="&amp;lt;&amp;lt;API&amp;gt;&amp;gt;&lt;br style=&quot;border-color: var(--border-color);&quot;&gt;Payment Gateway" style="html=1;whiteSpace=wrap;fillColor=#B46504;gradientColor=#FFC28C;gradientDirection=north;" vertex="1" parent="1">
          <mxGeometry x="854" y="730" width="190" height="90" as="geometry" />
        </mxCell>
        <mxCell id="MAUNU28R5X6QQiyGuLCO-36" value="&amp;lt;&amp;lt;Component&amp;gt;&amp;gt;&lt;br style=&quot;border-color: var(--border-color);&quot;&gt;Sales Managements" style="html=1;whiteSpace=wrap;fillColor=#B46504;gradientColor=#FFC28C;gradientDirection=north;" vertex="1" parent="1">
          <mxGeometry x="1110" y="580" width="270" height="50" as="geometry" />
        </mxCell>
        <mxCell id="MAUNU28R5X6QQiyGuLCO-37" value="&amp;lt;&amp;lt;Component&amp;gt;&amp;gt;&lt;br style=&quot;border-color: var(--border-color);&quot;&gt;Payments Processor" style="html=1;whiteSpace=wrap;fillColor=#B46504;gradientColor=#FFC28C;gradientDirection=north;" vertex="1" parent="1">
          <mxGeometry x="770" y="580" width="270" height="50" as="geometry" />
        </mxCell>
        <mxCell id="MAUNU28R5X6QQiyGuLCO-38" value="&amp;lt;&amp;lt;Component&amp;gt;&amp;gt;&lt;br style=&quot;border-color: var(--border-color);&quot;&gt;Financial Services" style="html=1;whiteSpace=wrap;fillColor=#B46504;gradientColor=#FFC28C;gradientDirection=north;" vertex="1" parent="1">
          <mxGeometry x="440" y="580" width="270" height="50" as="geometry" />
        </mxCell>
        <mxCell id="MAUNU28R5X6QQiyGuLCO-39" value="&lt;p style=&quot;margin:0px;margin-top:6px;text-align:center;&quot;&gt;&lt;/p&gt;&lt;h2 style=&quot;text-align: center; margin: 0px 0px 0px 8px;&quot;&gt;&lt;/h2&gt;&lt;h2 style=&quot;text-align: center; margin: 0px 0px 0px 8px;&quot;&gt;Infrastructure Services&lt;/h2&gt;" style="align=left;overflow=fill;html=1;dropTarget=0;whiteSpace=wrap;" vertex="1" parent="1">
          <mxGeometry x="1470" y="100" width="290" height="650" as="geometry" />
        </mxCell>
        <mxCell id="MAUNU28R5X6QQiyGuLCO-45" value="&amp;lt;&amp;lt;Component&amp;gt;&amp;gt;&lt;br style=&quot;border-color: var(--border-color);&quot;&gt;Notifications" style="html=1;whiteSpace=wrap;fillColor=#B46504;gradientColor=#FFC28C;gradientDirection=north;" vertex="1" parent="1">
          <mxGeometry x="1480" y="300" width="270" height="50" as="geometry" />
        </mxCell>
        <mxCell id="MAUNU28R5X6QQiyGuLCO-46" value="&amp;lt;&amp;lt;Component&amp;gt;&amp;gt;&lt;br style=&quot;border-color: var(--border-color);&quot;&gt;Auditing" style="html=1;whiteSpace=wrap;fillColor=#B46504;gradientColor=#FFC28C;gradientDirection=north;" vertex="1" parent="1">
          <mxGeometry x="1480" y="370" width="270" height="50" as="geometry" />
        </mxCell>
        <mxCell id="MAUNU28R5X6QQiyGuLCO-47" value="&lt;h1&gt;Back-End&lt;/h1&gt;" style="text;align=center;fontStyle=1;verticalAlign=middle;spacingLeft=3;spacingRight=3;strokeColor=none;rotatable=0;points=[[0,0.5],[1,0.5]];portConstraint=eastwest;html=1;" vertex="1" parent="1">
          <mxGeometry x="990" y="30" width="80" height="26" as="geometry" />
        </mxCell>
        <mxCell id="MAUNU28R5X6QQiyGuLCO-48" value="&amp;lt;&amp;lt;Component&amp;gt;&amp;gt;&lt;br style=&quot;border-color: var(--border-color);&quot;&gt;Security" style="html=1;whiteSpace=wrap;fillColor=#B46504;gradientColor=#FFC28C;gradientDirection=north;" vertex="1" parent="1">
          <mxGeometry x="1480" y="150" width="270" height="50" as="geometry" />
        </mxCell>
        <mxCell id="MAUNU28R5X6QQiyGuLCO-49" value="&amp;lt;&amp;lt;Component&amp;gt;&amp;gt;&lt;br style=&quot;border-color: var(--border-color);&quot;&gt;Monitor And Analytics" style="html=1;whiteSpace=wrap;fillColor=#B46504;gradientColor=#FFC28C;gradientDirection=north;" vertex="1" parent="1">
          <mxGeometry x="1480" y="220" width="270" height="50" as="geometry" />
        </mxCell>
      </root>
    </mxGraphModel>
  </diagram>
</mxfile>
